<mxfile host="app.diagrams.net" modified="2023-05-17T17:00:58.129Z" agent="Mozilla/5.0 (Windows NT 10.0; Win64; x64) AppleWebKit/537.36 (KHTML, like Gecko) Chrome/113.0.0.0 Safari/537.36" version="21.3.2" etag="4FAgB58la1J7htN1vSoj" type="github">
  <diagram name="Страница 1" id="_cgVRfmmSxp-m_nGrKUW">
    <mxGraphModel>
      <root>
        <mxCell id="0" />
        <mxCell id="1" parent="0" />
      </root>
    </mxGraphModel>
  </diagram>
</mxfile>
